<svg id="Layer_1" data-name="Layer 1" xmlns="http://www.w3.org/2000/svg" viewBox="0 0 280 280"><defs><style>.cls-1{fill:#202020;}.cls-2{fill:#323232;}.cls-3{fill:#3c3c3c;}.cls-4{fill:#4b4b4b;}.cls-5{fill:#4d4d4d;}.cls-6{fill:#222;}.cls-7{fill:#121212;}.cls-8{fill:#cacaca;}.cls-9{fill:#515151;}</style></defs><title>github-logo</title><g id="TOi8kG.tif"><path d="M267.81,162.46A118.68,118.68,0,0,1,248.94,213c-15.9,24.45-37.35,42-65,51.85-.69.24-1.36.51-2,.72-6,1.86-9.64-.8-9.66-7,0-11.51,0-23,0-34.52A44.88,44.88,0,0,0,171,213.31c-1.24-5-2.81-7.76-7.3-13,5.88-.84,11.68-1.55,17.28-3.2,12-3.54,22.95-9,30.49-19.5,6.34-8.8,9-19,10.29-29.61,1.05-8.95,1.06-17.86-1.61-26.62a46.89,46.89,0,0,0-9.63-17.42,3.37,3.37,0,0,1-.67-3.85c3.46-10.42,2.17-20.64-1.56-30.73-.52-1.41-1.51-1.59-2.76-1.65-3.79-.2-7.31.9-10.8,2.15A89.49,89.49,0,0,0,174.48,80.2a4.49,4.49,0,0,1-4,.68,118.74,118.74,0,0,0-60.62.09,4.18,4.18,0,0,1-3.72-.84A84.39,84.39,0,0,0,78.78,68a12.58,12.58,0,0,0-1.61-.27c-4.17-.35-4.49-.17-5.78,3.85C68.26,81.29,67.48,91,71,100.81a2.3,2.3,0,0,1-.55,2.66c-10.57,11.92-13.33,26.09-11.92,41.47a91.17,91.17,0,0,0,3.37,17.78c5.34,18,18,28.25,35.27,33.74A101.69,101.69,0,0,0,117,200.22c-1.23,1.57-2.53,2.76-3.51,4.18a30.07,30.07,0,0,0-4.52,11.79,2.38,2.38,0,0,1-1.64,2.16C92.16,223.78,80,222.18,71,206.94c-4.2-7.1-10.34-11.78-18.72-13-2.22-.32-5.23-.79-6.13,1.39s1.55,4.13,3.47,5.23c7.74,4.47,12.16,11.49,15.21,19.5,3.66,9.59,11,14.25,20.64,15.77a60.24,60.24,0,0,0,21.34-.18c1.24-.24,1.59-.07,1.59,1.21,0,7.52.23,15,.14,22.56-.06,5.44-4.37,8-10,6.1a121.16,121.16,0,0,1-40.69-22.76c-22.93-19.65-38-44.05-44.08-73.79-.63-3.1-1-6.24-1.46-9.37a3,3,0,0,1-.52-2.16v-2.71c-.24-2.18.54-4.44-.55-6.55V139.5c.91-.72.43-1.73.55-2.61v-7.61c-.2-7.83,2-15.24,4.15-22.61A128.25,128.25,0,0,1,48.42,52,129.61,129.61,0,0,1,98.84,20.4c10.54-3.66,21.53-5.36,32.71-6.22A127.9,127.9,0,0,1,229,48.8a128.88,128.88,0,0,1,39,70.89,20.21,20.21,0,0,1,.34,4.59v2.46c.11,1-.32,2.11.55,3V158C267.67,159.29,268.81,161.11,267.81,162.46Z"/><path class="cls-1" d="M11.18,148.19c2.13,1.91.72,4.37,1,6.56-1,.21-.56-.86-1-1.12Z"/><path class="cls-2" d="M12.23,130.77v4.36a.68.68,0,0,1-1.05,0V130.8A.72.72,0,0,1,12.23,130.77Z"/><path class="cls-3" d="M267.81,162.46c.29-1.51-1.1-3.39,1-4.48v4.35Z"/><path class="cls-4" d="M11.18,153.63l1,1.12c0,.92,0,1.84,0,2.76a.72.72,0,0,1-1-.08Z"/><path class="cls-5" d="M267.77,124.22l1.05.06V127a.64.64,0,0,1-1-.06Z"/><path class="cls-6" d="M267.79,126.94l1,.06v2.71C267.05,129.32,267.91,128,267.79,126.94Z"/><path class="cls-7" d="M12.25,137.3c-.5.66,1.14,2.37-1.07,2.2v-2.72C11.8,136.43,12,137,12.25,137.3Z"/><path class="cls-8" d="M11.18,157.43l1,.08c0,.7,0,1.4.05,2.1H11.18Z"/><path class="cls-6" d="M12.25,137.3l-1.07-.52v-1.63l1.05,0C12.24,135.85,12.25,136.58,12.25,137.3Z"/><path class="cls-9" d="M12.23,130.77l-1.05,0v-1.63l1-.08Z"/></g></svg>