<svg id="Layer_1" data-name="Layer 1" xmlns="http://www.w3.org/2000/svg" viewBox="0 0 280 280"><defs><style>.cls-1{fill:#fefefe;}.cls-2{fill:#f7f7f7;}</style></defs><title>medium-logo</title><rect x="9.23" y="8.74" width="261.54" height="261.54" rx="130.77"/><g id="WWRkLE.tif"><path class="cls-1" d="M173.87,111.07,135.68,208c-.52,1.34-.68,2.87-2.86,2.65-2-.21-3.63.07-4.8-2.5q-22.09-48.72-44.51-97.3c-.19-.42-.41-.82-.64-1.28-1,.56-.44,1.38-.44,2,0,21.9,0,43.8-.07,65.7a11.75,11.75,0,0,0,2.89,7.94C91,192.07,96.7,199,102.41,205.94a9.28,9.28,0,0,1,1,1.31c1.1,2,.34,3.31-1.93,3.31q-24.15,0-48.3,0c-.85,0-2.12.56-2.51-.54a3.64,3.64,0,0,1,.91-3.62c4.82-5.73,9.56-11.52,14.32-17.29q1.88-2.28,3.77-4.53A9.17,9.17,0,0,0,72,178.36c-.5-26.48-.11-53-.17-79.45a10.49,10.49,0,0,0-2.66-7.37c-5.09-5.86-9.95-11.91-14.9-17.89A4.19,4.19,0,0,1,52.86,71c0-1.33.18-2,1.8-2q24.15.09,48.29,0c1.79,0,2.16,1,2.7,2.21L126,115.78l18,39.49c.19.4.42.78.82,1.54,4.18-10.44,8.21-20.52,12.25-30.59,7.36-18.36,14.75-36.71,22-55.1.67-1.7,1.53-2.15,3.28-2.15,14.79.08,29.58,0,44.36.08.87,0,2.24-.74,2.59.78a3.2,3.2,0,0,1-1.06,3.26c-4.32,4-8.51,8.15-12.82,12.18a5.84,5.84,0,0,0-2,4.68q.08,50,0,100a6.21,6.21,0,0,0,2.09,4.92c4.07,3.87,8,7.89,12.08,11.74,1.16,1.1,1.74,2.32,1.25,3.7s-1.95.65-2.94.65q-32.14.08-64.3,0c-.88,0-2.24.77-2.65-.66a3.32,3.32,0,0,1,1.15-3.49c4.1-3.83,8.1-7.78,12.11-11.7a7.28,7.28,0,0,0,2.16-2.52,5.88,5.88,0,0,0,.23-2.76q0-38,0-76C174.63,113,175.58,111.56,173.87,111.07Z"/><path class="cls-2" d="M92.18,207.18a1.48,1.48,0,0,1,0,2.16A1.29,1.29,0,0,1,92.18,207.18Z"/></g></svg>