<svg fill="none" height="116" viewBox="0 0 116 116" width="116" xmlns="http://www.w3.org/2000/svg"><path d="m31 59.8691h19.9853l-9.7355 17.3035h-.2571z" fill="#d053f9"/><path clip-rule="evenodd" d="m35.6018 38.4422c.0007-.0014.0014-.0027 2.4888 1.3315 2.4873 1.3342 2.488 1.3329 2.4887 1.3317l.0012-.0024.0021-.004.003-.0055c.0013-.0026.0015-.0031.0007-.0014-.0018.0034-.0078.0153-.0177.0353-.0197.0401-.0542.1125-.0993.2143-.0902.2042-.2207.5229-.3569.9345-.2747.8304-.5584 1.995-.6063 3.334-.0918 2.5673.6572 5.9488 4.5453 9.0868l-3.5455 4.3929c-5.4433-4.3932-6.7883-9.5716-6.6413-13.6814.0715-1.9995.4904-3.7028.8884-4.9056.2002-.605.3987-1.0942.5532-1.4438.0774-.1751.1442-.3161.1953-.4201.0256-.0521.0473-.0949.0644-.1283.0086-.0167.016-.031.0223-.0428l.0084-.0161.0036-.0066z" fill="#e2e2e2" fill-rule="evenodd"/><path d="m40.9927 42.529 17.781-30.529 9.8824 17.083-17.6708 30.7862h-9.9192-10.0661z" fill="#981cf9"/><path d="m73.9097 35.2549 10.9478 18.9566h-21.6385z" fill="#3dd9ea"/><path clip-rule="evenodd" d="m74.4254 59.1561c.0011.001.0022.002 1.909-2.0791 1.9069-2.081 1.908-2.08 1.9092-2.0789l.0025.0023.0056.0052.0134.0124c.0099.0092.0216.0203.0352.0332.0272.0258.0617.059.1028.0995.0821.081.1909.1913.3205.33.2586.2768.6033.6698.9862 1.1706.7613.9957 1.7015 2.4538 2.4045 4.3054 1.4483 3.8146 1.7958 9.0985-1.9697 14.9821l-4.7548-3.0431c2.7004-4.2193 2.3314-7.6055 1.4469-9.9353-.4634-1.2205-1.0938-2.2032-1.6114-2.8803-.2566-.3355-.4785-.5869-.6265-.7453-.0738-.0789-.1284-.134-.1588-.1639-.0152-.015-.0243-.0237-.0266-.0259-.0006-.0006-.0007-.0007-.0003-.0002.0004.0003.0011.0009.002.0019l.0049.0044.0034.0032z" fill="#e2e2e2" fill-rule="evenodd"/><path d="m63.219 54.2114h10.7641 10.8744l-28.9126 50.1836-10.8009-18.7361z" fill="#efcd3f"/><path clip-rule="evenodd" d="m35.6191 38.5159c3.4221-6.6301 10.2295-10.7859 17.6809-10.7859h23.6109l-30.4923 53.1227h14.7065c5.8146 0 11.1934-3.0177 14.2452-7.9258l4.794 2.9809c-4.0753 6.5541-11.2608 10.59-19.0392 10.59h-24.4558l30.4923-53.1227h-13.8616c-5.3333 0-10.2084 2.9714-12.6645 7.7299z" fill="#fff" fill-rule="evenodd"/></svg>