<svg xmlns="http://www.w3.org/2000/svg" xmlns:xlink="http://www.w3.org/1999/xlink" viewBox="0 0 126.12 135.86"><defs><style>.cls-1{isolation:isolate;}.cls-11,.cls-12,.cls-13,.cls-14,.cls-15,.cls-2{fill:#fff;}.cls-3{fill:#1a1c1c;}.cls-13,.cls-3{opacity:0.4;}.cls-3,.cls-4{mix-blend-mode:lighten;}.cls-4{opacity:0.7;}.cls-5{fill:url(#linear-gradient);}.cls-6{fill:#231f20;}.cls-7{fill:#848484;}.cls-8{fill:#353738;}.cls-9{fill:#414344;}.cls-10{fill:#565151;}.cls-11{opacity:0.8;}.cls-12{opacity:0.6;}.cls-14{opacity:0.2;}.cls-15{opacity:0.1;}.cls-16{fill:#acc6cc;}</style><linearGradient id="linear-gradient" x1="139.63" y1="38.05" x2="14.4" y2="23.37" gradientTransform="translate(20 34.13) rotate(-0.13)" gradientUnits="userSpaceOnUse"><stop offset="0" stop-color="#4f24ff"/><stop offset="1" stop-color="#13ffe2"/></linearGradient></defs><title>eth_logo</title><g class="cls-1"><g id="Ñëîé_1" data-name="Ñëîé 1"><path class="cls-2" d="M7.93,86.24V75.06h.33V86.54c0,4.64-2.77,9.28-8.26,13C5.28,95.67,7.93,91,7.93,86.24Z"/><path class="cls-3" d="M80.89,100.24l-.17-57.55a1.36,1.36,0,0,1-.65.84L59.66,55.4a3.66,3.66,0,0,1-3.5.12L36,43.74a1.87,1.87,0,0,1-1-1.19l.13,57.4a1.63,1.63,0,0,0,1,1.67L56.28,113.4a3.66,3.66,0,0,0,3.5-.12L80.2,101.41a1.34,1.34,0,0,0,.68-1.17Z"/><g class="cls-4"><path class="cls-5" d="M57.64,73.89a3.79,3.79,0,0,1-1.73-.41L35.47,61.71a1.89,1.89,0,0,1-1.06-1.51,1.54,1.54,0,0,1,.75-1.32h0L56,46.94a3.89,3.89,0,0,1,3.73-.12L80.16,58.61A2,2,0,0,1,81,60.27a1.45,1.45,0,0,1-.76,1.22L59.58,73.36A3.85,3.85,0,0,1,57.64,73.89ZM35.3,59.09a1.31,1.31,0,0,0-.63,1.1,1.64,1.64,0,0,0,.93,1.29L56,73.26a3.59,3.59,0,0,0,3.41-.13L80.12,61.27a1.22,1.22,0,0,0,.63-1A1.68,1.68,0,0,0,80,58.83L59.59,47.05a3.67,3.67,0,0,0-3.48.11Z"/></g><path class="cls-6" d="M21.88,57.13l0-11.74h6.36a28.68,28.68,0,0,1,4.15-2.92c14-8.13,36.75-8.18,50.8-.12a29.66,29.66,0,0,1,4.17,2.9h6.36l0,11.75h0c0,5.31-3.48,10.62-10.48,14.69-14,8.13-36.75,8.18-50.8.12C25.4,67.75,21.88,62.44,21.88,57.13Z"/><path class="cls-2" d="M22.42,45.39l0,11.36C22.45,62.06,26,67.37,33,71.41c14,8.06,36.78,8,50.79-.12.71-.41,1.37-.85,2-1.29a29.19,29.19,0,0,1-2.57,1.67c-14,8.13-36.75,8.18-50.8.12-7-4-10.55-9.35-10.55-14.66l0-11.74Z"/><ellipse class="cls-6" cx="57.77" cy="45.31" rx="35.92" ry="20.74" transform="translate(-0.11 0.14) rotate(-0.13)"/><path class="cls-2" d="M82.16,30.8C75,26.71,65.72,24.65,56.38,24.61c9.63-.23,19.39,1.75,26.75,6,10.94,6.28,13.48,15.75,7.26,23.3C95.74,46.17,93,37,82.16,30.8Z"/><path class="cls-2" d="M32.34,30.7A44.37,44.37,0,0,1,45,26,43.63,43.63,0,0,0,33.6,30.42c-14,8.13-14,21.26.06,29.33C44,65.67,59,67.2,71.76,64.38,58.71,67.59,43.06,66.15,32.4,60,18.36,52,18.33,38.84,32.34,30.7Z"/><ellipse class="cls-7" cx="57.94" cy="45.31" rx="22.95" ry="13.25" transform="translate(-0.11 0.14) rotate(-0.13)"/><path class="cls-3" d="M58.1,117.32c-6.93,0-13.86-1.49-19.15-4.53h0c-5.18-3-8.05-7-8.06-11.24s2.84-8.27,8-11.27c10.54-6.12,27.72-6.16,38.29-.09,5.19,3,8,7,8.06,11.24s-2.84,8.27-8,11.27S65,117.3,58.1,117.32Zm-.06-31c-6.81,0-13.61,1.52-18.79,4.53-4.94,2.87-7.66,6.66-7.66,10.66s2.75,7.78,7.71,10.63h0c10.38,6,27.24,5.92,37.59-.09,4.94-2.87,7.66-6.66,7.65-10.66s-2.74-7.78-7.7-10.63C71.65,87.82,64.84,86.34,58,86.36Z"/><path class="cls-8" d="M74.17,43c-9-5.15-23.51-5.12-32.46.08a14,14,0,0,0-5.86,5.83c-2.15-4.45-.22-9.42,5.84-12.93,9-5.2,23.48-5.23,32.46-.08,6.07,3.49,8,8.45,5.9,12.91A14.07,14.07,0,0,0,74.17,43Z"/><path class="cls-9" d="M74.16,40.49c-9-5.15-23.51-5.12-32.46.08-3.46,2-5.57,4.5-6.35,7.09-1.25-4.11.85-8.5,6.34-11.68,9-5.2,23.48-5.23,32.46-.08,5.51,3.16,7.63,7.54,6.39,11.65C79.75,45,77.63,42.49,74.16,40.49Z"/><path class="cls-10" d="M74.16,38.26c-9-5.15-23.51-5.12-32.47.08-3.95,2.29-6.15,5.21-6.6,8.2-.59-3.77,1.6-7.66,6.6-10.56,9-5.2,23.48-5.23,32.46-.08,5,2.88,7.22,6.76,6.65,10.53C80.33,43.45,78.12,40.54,74.16,38.26Z"/><path class="cls-2" d="M39.86,29.05a2.27,2.27,0,0,1,2.12.29c.44.41.22,1-.51,1.22a2.25,2.25,0,0,1-2.11-.29C38.91,29.86,39.13,29.31,39.86,29.05Z"/><path class="cls-11" d="M34.79,31.52a2.37,2.37,0,0,1,2.14,0c.57.35.54.91-.08,1.24a2.37,2.37,0,0,1-2.14,0C34.15,32.4,34.18,31.85,34.79,31.52Z"/><path class="cls-12" d="M30.64,34.5a2.31,2.31,0,0,1,2.11-.2c.68.28.83.83.35,1.22a2.33,2.33,0,0,1-2.12.2C30.3,35.44,30.15,34.9,30.64,34.5Z"/><path class="cls-13" d="M27.57,37.9a2.1,2.1,0,0,1,2-.44c.76.2,1.09.72.75,1.16a2.1,2.1,0,0,1-2,.43C27.56,38.85,27.22,38.33,27.57,37.9Z"/><path class="cls-14" d="M25.71,41.57c.19-.48,1-.77,1.82-.66s1.32.58,1.13,1.05a1.78,1.78,0,0,1-1.83.65C26,42.51,25.52,42,25.71,41.57Z"/><path class="cls-15" d="M25.27,45.79c-.36-.43-.05-1,.7-1.17A2.11,2.11,0,0,1,28,45c.37.44.06,1-.69,1.18A2.15,2.15,0,0,1,25.27,45.79Z"/><polygon class="cls-16" points="57.98 45.1 58 54.89 70.1 37.8 57.98 45.1"/><polygon class="cls-16" points="69.62 34.64 57.91 15.25 57.94 29.37 69.62 34.64"/><polygon class="cls-16" points="57.94 30.49 57.97 42.53 69.53 35.72 57.94 30.49"/><polygon class="cls-16" points="45.26 34.7 56.88 15.26 56.92 29.37 45.26 34.7"/><polygon class="cls-16" points="56.92 30.49 56.95 42.53 45.32 35.78 56.92 30.49"/><polygon class="cls-16" points="56.92 45.1 56.95 54.89 44.77 37.86 56.92 45.1"/><ellipse class="cls-6" cx="58" cy="101.12" rx="22.87" ry="13.27" transform="translate(-0.23 0.13) rotate(-0.13)"/></g></g></svg>