<svg xmlns="http://www.w3.org/2000/svg" xmlns:xlink="http://www.w3.org/1999/xlink" viewBox="0 0 114.91 102.09"><defs><style>.cls-1{isolation:isolate;}.cls-2{opacity:0.7;mix-blend-mode:lighten;}.cls-3{fill:url(#linear-gradient);}.cls-4{fill:#231f20;}.cls-10,.cls-11,.cls-12,.cls-13,.cls-14,.cls-5{fill:#fff;}.cls-6{fill:#848484;}.cls-7{fill:#353738;}.cls-8{fill:#414344;}.cls-9{fill:#565151;}.cls-10{opacity:0.8;}.cls-11{opacity:0.6;}.cls-12{opacity:0.4;}.cls-13{opacity:0.2;}.cls-14{opacity:0.1;}.cls-15{fill:#acc6cc;}</style><linearGradient id="linear-gradient" x1="139.22" y1="49.75" x2="13.99" y2="35.06" gradientTransform="translate(20 33.81) rotate(-0.13)" gradientUnits="userSpaceOnUse"><stop offset="0" stop-color="#4f24ff"/><stop offset="1" stop-color="#13ffe2"/></linearGradient></defs><title>eth_logo</title><g class="cls-1"><g id="Ñëîé_1" data-name="Ñëîé 1"><g class="cls-2"><path class="cls-3" d="M57.26,85.27a3.93,3.93,0,0,1-1.73-.41L35.09,73.08A1.88,1.88,0,0,1,34,71.57a1.58,1.58,0,0,1,.74-1.32h0L55.6,58.32a3.92,3.92,0,0,1,3.73-.13L79.78,70a2,2,0,0,1,.85,1.65,1.49,1.49,0,0,1-.76,1.23L59.2,84.74A4,4,0,0,1,57.26,85.27ZM34.91,70.47a1.33,1.33,0,0,0-.62,1.1,1.63,1.63,0,0,0,.93,1.29L55.66,84.63a3.56,3.56,0,0,0,3.41-.12L79.74,72.65a1.24,1.24,0,0,0,.63-1,1.68,1.68,0,0,0-.73-1.42L59.21,58.42a3.67,3.67,0,0,0-3.48.12Z"/></g><path class="cls-4" d="M21.5,68.51l0-11.74,6.36,0A28.88,28.88,0,0,1,32,53.84c14-8.13,36.75-8.19,50.8-.12A29.41,29.41,0,0,1,87,56.62l6.35,0,0,11.76h0c0,5.31-3.48,10.62-10.49,14.69-14,8.13-36.75,8.18-50.79.12C25,79.13,21.5,73.82,21.5,68.51Z"/><path class="cls-5" d="M22,56.77l0,11.36c0,5.31,3.52,10.62,10.55,14.66,14,8.06,36.79,8,50.8-.12.71-.42,1.36-.85,2-1.29a30,30,0,0,1-2.57,1.67c-14,8.13-36.75,8.18-50.79.12-7-4-10.55-9.35-10.55-14.66l0-11.74Z"/><ellipse class="cls-4" cx="57.39" cy="56.69" rx="35.92" ry="20.74" transform="translate(-0.13 0.13) rotate(-0.13)"/><path class="cls-5" d="M81.78,42.18C74.65,38.08,65.33,36,56,36c9.63-.23,19.39,1.74,26.75,6C93.69,48.25,96.23,57.72,90,65.27,95.36,57.55,92.62,48.4,81.78,42.18Z"/><path class="cls-5" d="M32,42.08a44.54,44.54,0,0,1,12.7-4.75A43.36,43.36,0,0,0,33.21,41.8c-14,8.13-14,21.26.07,29.32,10.32,5.93,25.31,7.45,38.1,4.64-13,3.2-28.7,1.77-39.36-4.35C18,63.34,18,50.21,32,42.08Z"/><ellipse class="cls-6" cx="57.56" cy="56.69" rx="22.95" ry="13.25" transform="translate(-0.13 0.14) rotate(-0.13)"/><path class="cls-7" d="M73.79,54.38c-9-5.15-23.51-5.12-32.47.08a14,14,0,0,0-5.85,5.83c-2.15-4.45-.22-9.42,5.84-12.94,8.95-5.19,23.48-5.23,32.46-.07,6.07,3.48,8,8.45,5.9,12.91A14.07,14.07,0,0,0,73.79,54.38Z"/><path class="cls-8" d="M73.78,51.87c-9-5.15-23.51-5.12-32.46.08C37.86,54,35.75,56.44,35,59c-1.25-4.11.85-8.5,6.34-11.69,8.95-5.19,23.48-5.23,32.46-.07,5.5,3.16,7.62,7.54,6.39,11.65C79.37,56.34,77.25,53.86,73.78,51.87Z"/><path class="cls-9" d="M73.77,49.64c-9-5.16-23.51-5.12-32.46.07-4,2.3-6.15,5.22-6.6,8.21-.59-3.77,1.6-7.67,6.6-10.57,8.95-5.19,23.48-5.23,32.46-.07,5,2.87,7.22,6.76,6.65,10.53C80,54.83,77.74,51.92,73.77,49.64Z"/><path class="cls-5" d="M39.47,40.43a2.29,2.29,0,0,1,2.12.28c.45.42.23,1-.5,1.23A2.27,2.27,0,0,1,39,41.65C38.53,41.23,38.75,40.69,39.47,40.43Z"/><path class="cls-10" d="M34.41,42.9a2.37,2.37,0,0,1,2.14,0c.57.35.53.9-.08,1.23a2.34,2.34,0,0,1-2.14,0C33.76,43.78,33.8,43.23,34.41,42.9Z"/><path class="cls-11" d="M30.26,45.88a2.31,2.31,0,0,1,2.11-.2c.68.28.83.83.34,1.22a2.31,2.31,0,0,1-2.11.2C29.92,46.82,29.77,46.27,30.26,45.88Z"/><path class="cls-12" d="M27.19,49.27a2.1,2.1,0,0,1,2-.43c.76.2,1.09.71.74,1.15a2.07,2.07,0,0,1-2,.44C27.18,50.23,26.84,49.71,27.19,49.27Z"/><path class="cls-13" d="M25.33,52.94c.19-.47,1-.76,1.82-.65s1.32.58,1.12,1.05-1,.76-1.82.65S25.13,53.41,25.33,52.94Z"/><path class="cls-14" d="M24.89,57.17c-.37-.44-.06-1,.69-1.18a2.15,2.15,0,0,1,2,.4c.37.43.06,1-.69,1.17A2.12,2.12,0,0,1,24.89,57.17Z"/><polygon class="cls-15" points="57.59 56.48 57.62 66.26 69.71 49.17 57.59 56.48"/><polygon class="cls-15" points="69.24 46.02 57.52 26.63 57.56 40.75 69.24 46.02"/><polygon class="cls-15" points="57.56 41.86 57.59 53.91 69.15 47.1 57.56 41.86"/><polygon class="cls-15" points="44.87 46.07 56.5 26.63 56.53 40.75 44.87 46.07"/><polygon class="cls-15" points="56.54 41.87 56.56 53.91 44.94 47.16 56.54 41.87"/><polygon class="cls-15" points="56.54 56.48 56.56 66.27 44.38 49.23 56.54 56.48"/></g></g></svg>