<svg xmlns="http://www.w3.org/2000/svg" xmlns:xlink="http://www.w3.org/1999/xlink" viewBox="0 0 131.93 135.86"><defs><style>.cls-1{isolation:isolate;}.cls-2{fill:#848484;}.cls-3{fill:#231f20;}.cls-10,.cls-11,.cls-12,.cls-13,.cls-14,.cls-4{fill:#fff;}.cls-5{opacity:0.7;mix-blend-mode:lighten;}.cls-6{fill:url(#linear-gradient);}.cls-7{fill:#353738;}.cls-8{fill:#414344;}.cls-9{fill:#565151;}.cls-10{opacity:0.8;}.cls-11{opacity:0.6;}.cls-12{opacity:0.4;}.cls-13{opacity:0.2;}.cls-14{opacity:0.1;}.cls-15{fill:#acc6cc;}</style><linearGradient id="linear-gradient" x1="163.3" y1="69.09" x2="38.06" y2="54.41" gradientUnits="userSpaceOnUse"><stop offset="0" stop-color="#4f24ff"/><stop offset="1" stop-color="#13ffe2"/></linearGradient></defs><title>eth_logo</title><g class="cls-1"><g id="Ñëîé_1" data-name="Ñëîé 1"><path class="cls-2" d="M62.07,125.42c-9,0-18.09-2-25-6s-10.43-9.07-10.43-14.6,3.7-10.71,10.43-14.6c13.77-8,36.17-8,49.94,0,6.73,3.89,10.44,9.07,10.44,14.6S93.77,115.57,87,119.46C80.16,123.44,71.11,125.42,62.07,125.42Zm0-40.49c-8.93,0-17.85,2-24.65,5.88-6.52,3.77-10.12,8.76-10.12,14s3.6,10.28,10.12,14h0c13.59,7.85,35.71,7.85,49.3,0,6.53-3.77,10.12-8.76,10.12-14s-3.59-10.28-10.12-14C79.93,86.89,71,84.93,62.07,84.93Z"/><path class="cls-3" d="M41.71,116.62c11.24,6.49,29.48,6.49,40.72,0s11.25-17,0-23.52S53,86.61,41.71,93.1,30.46,110.12,41.71,116.62Z"/><path class="cls-3" d="M26.66,86.52V75.06h6.21a27.51,27.51,0,0,1,4.07-2.84c13.7-7.91,35.92-7.91,49.62,0a27.93,27.93,0,0,1,4.06,2.84h6.21V86.54h0c0,5.19-3.42,10.37-10.27,14.33-13.71,7.91-35.92,7.91-49.62,0C30.08,96.91,26.65,91.71,26.66,86.52Z"/><path class="cls-4" d="M96.51,86.24V75.06h.32V86.54c0,4.64-2.76,9.28-8.25,13C93.86,95.67,96.51,91,96.51,86.24Z"/><path class="cls-4" d="M27.22,75.06V86.15c0,5.2,3.41,10.39,10.27,14.35,13.7,7.91,35.92,7.91,49.62,0,.7-.41,1.33-.83,2-1.26-.78.56-1.61,1.11-2.51,1.63-13.71,7.91-35.92,7.91-49.62,0-6.86-4-10.29-9.16-10.28-14.35V75.06Z"/><ellipse class="cls-3" cx="61.75" cy="75.06" rx="35.09" ry="20.26"/><path class="cls-4" d="M85.61,60.94c-7-4-16-6-25.17-6.1,9.41-.21,18.93,1.74,26.12,5.89,10.67,6.17,13.12,15.43,7,22.79C98.84,76,96.18,67.05,85.61,60.94Z"/><path class="cls-4" d="M36.94,60.73a43.6,43.6,0,0,1,12.41-4.61,42.65,42.65,0,0,0-11.18,4.34c-13.7,7.91-13.7,20.73,0,28.64,10.06,5.81,24.7,7.34,37.21,4.62-12.76,3.1-28,1.66-38.44-4.34C23.23,81.47,23.23,68.64,36.94,60.73Z"/><ellipse class="cls-2" cx="61.92" cy="75.06" rx="22.42" ry="12.95"/><path class="cls-2" d="M77.77,72.84c-8.75-5-22.95-5-31.71,0a13.76,13.76,0,0,0-5.73,5.69c-2.09-4.35-.19-9.21,5.73-12.63,8.76-5.05,23-5.05,31.71,0,5.92,3.42,7.83,8.28,5.74,12.63A13.68,13.68,0,0,0,77.77,72.84Z"/><path class="cls-2" d="M77.77,70.39c-8.75-5-22.95-5-31.71,0-3.38,2-5.44,4.38-6.21,6.91-1.22-4,.84-8.3,6.21-11.4,8.76-5.05,23-5.05,31.71,0C83.14,69,85.2,73.29,84,77.3,83.22,74.77,81.16,72.35,77.77,70.39Z"/><path class="cls-2" d="M77.77,68.21c-8.75-5.06-22.95-5.06-31.71,0-3.87,2.23-6,5.08-6.47,8-.57-3.69,1.58-7.48,6.47-10.31,8.76-5.05,23-5.05,31.71,0,4.89,2.82,7,6.62,6.47,10.31C83.79,73.29,81.64,70.44,77.77,68.21Z"/><g class="cls-5"><path class="cls-6" d="M61.22,70.89a3.93,3.93,0,0,1-1.73-.41L39.07,58.65a1.89,1.89,0,0,1-1-1.51,1.56,1.56,0,0,1,.75-1.32h0L59.62,43.94a3.92,3.92,0,0,1,3.73-.12L83.77,55.67a2,2,0,0,1,.85,1.65,1.47,1.47,0,0,1-.77,1.22L63.16,70.36A3.85,3.85,0,0,1,61.22,70.89ZM38.91,56a1.3,1.3,0,0,0-.63,1.09,1.64,1.64,0,0,0,.92,1.3L59.61,70.25A3.61,3.61,0,0,0,63,70.14L83.72,58.32a1.23,1.23,0,0,0,.64-1,1.7,1.7,0,0,0-.73-1.42L63.23,44.05a3.67,3.67,0,0,0-3.48.11Z"/></g><path class="cls-3" d="M25.49,54.05V42.31h6.36A29.57,29.57,0,0,1,36,39.4c14-8.1,36.77-8.1,50.8,0A29.57,29.57,0,0,1,91,42.31h6.36V54.06h0c0,5.31-3.51,10.62-10.52,14.67-14,8.1-36.77,8.1-50.8,0C29,64.67,25.48,59.36,25.49,54.05Z"/><path class="cls-4" d="M26.06,42.31V53.67c0,5.31,3.5,10.63,10.52,14.68,14,8.1,36.77,8.1,50.79,0,.72-.41,1.37-.85,2-1.28-.8.57-1.65,1.13-2.57,1.66-14,8.1-36.77,8.1-50.8,0-7-4.06-10.53-9.37-10.52-14.68V42.31Z"/><ellipse class="cls-3" cx="61.41" cy="42.31" rx="35.92" ry="20.74"/><path class="cls-4" d="M85.84,27.86c-7.13-4.11-16.43-6.19-25.77-6.25,9.63-.21,19.38,1.79,26.74,6C97.74,34,100.25,43.43,94,51,99.38,43.26,96.66,34.11,85.84,27.86Z"/><path class="cls-4" d="M36,27.64a44.57,44.57,0,0,1,12.71-4.72,43.73,43.73,0,0,0-11.45,4.44c-14,8.1-14,21.23,0,29.33,10.3,6,25.29,7.51,38.09,4.72C62.3,64.59,46.65,63.11,36,57,22,48.87,22,35.74,36,27.64Z"/><ellipse class="cls-2" cx="61.58" cy="42.31" rx="22.95" ry="13.25"/><path class="cls-7" d="M77.81,40c-9-5.18-23.49-5.18-32.46,0a14.06,14.06,0,0,0-5.87,5.82c-2.14-4.45-.19-9.42,5.87-12.92,9-5.18,23.5-5.18,32.46,0,6.07,3.5,8,8.47,5.88,12.92A14,14,0,0,0,77.81,40Z"/><path class="cls-8" d="M77.81,37.53c-9-5.17-23.49-5.17-32.46,0-3.46,2-5.57,4.48-6.36,7.08-1.25-4.11.86-8.5,6.36-11.67,9-5.18,23.5-5.18,32.46,0,5.5,3.17,7.61,7.55,6.37,11.66C83.39,42,81.28,39.53,77.81,37.53Z"/><path class="cls-9" d="M77.81,35.3c-9-5.18-23.49-5.18-32.46,0-4,2.28-6.16,5.2-6.62,8.19-.58-3.77,1.62-7.66,6.62-10.55,9-5.18,23.5-5.18,32.46,0,5,2.88,7.21,6.77,6.63,10.55C84,40.5,81.78,37.58,77.81,35.3Z"/><path class="cls-4" d="M43.54,26a2.25,2.25,0,0,1,2.11.29c.45.42.22,1-.5,1.22A2.27,2.27,0,0,1,43,27.23C42.59,26.81,42.81,26.26,43.54,26Z"/><path class="cls-10" d="M38.47,28.47a2.35,2.35,0,0,1,2.13,0c.57.36.54.91-.07,1.24a2.34,2.34,0,0,1-2.14-.05C37.82,29.35,37.85,28.8,38.47,28.47Z"/><path class="cls-11" d="M34.31,31.44a2.31,2.31,0,0,1,2.11-.2c.68.29.83.83.34,1.22a2.28,2.28,0,0,1-2.11.2C34,32.38,33.82,31.83,34.31,31.44Z"/><path class="cls-12" d="M31.23,34.82a2.12,2.12,0,0,1,2-.43c.76.2,1.09.72.74,1.16A2.07,2.07,0,0,1,32,36C31.22,35.78,30.88,35.26,31.23,34.82Z"/><path class="cls-13" d="M29.36,38.49c.19-.47,1-.76,1.82-.65s1.32.58,1.13,1a1.78,1.78,0,0,1-1.83.65C29.67,39.43,29.17,39,29.36,38.49Z"/><path class="cls-14" d="M28.91,42.71c-.36-.43-.05-1,.7-1.17a2.15,2.15,0,0,1,2,.4c.36.44.05,1-.7,1.17A2.1,2.1,0,0,1,28.91,42.71Z"/><polygon class="cls-15" points="61.62 42.1 61.62 51.89 73.75 34.83 61.62 42.1"/><polygon class="cls-15" points="73.29 31.67 61.62 12.25 61.62 26.37 73.29 31.67"/><polygon class="cls-15" points="61.62 27.49 61.62 39.53 73.2 32.75 61.62 27.49"/><polygon class="cls-15" points="48.92 31.67 60.59 12.25 60.59 26.37 48.92 31.67"/><polygon class="cls-15" points="60.59 27.49 60.59 39.53 48.98 32.75 60.59 27.49"/><polygon class="cls-15" points="60.56 42.1 60.56 51.89 48.43 34.83 60.56 42.1"/></g></g></svg>