<svg xmlns="http://www.w3.org/2000/svg" viewBox="0 0 154 298.7"><defs><style>.f{fill:#7a14f9}.g{fill:#9645fa}.k{fill:#be8cfc}.l{fill:#ae70fb}</style></defs><path d="M143 255.8v9.9c0 18.23-29.56 33-66 33s-66-14.77-66-33v-9.9c0-18.23 29.56-33 66-33s66 14.77 66 33z" fill="#8cc9f5"/><path d="M154 204.6v25.3c0 21.26-34.48 38.5-77 38.5-4.89 0-9.68-.23-14.31-.67A125.86 125.86 0 0 1 33 261.49C13.05 254.54 0 243 0 229.9v-25.3c0-21.26 34.48-38.5 77-38.5s77 17.24 77 38.5z" fill="#77c0f3"/><path d="M148.5 203.5c0 19.75-32 35.75-71.49 35.75S5.5 223.25 5.5 203.5s32-35.75 71.51-35.75 71.49 16 71.49 35.75z" fill="#53aff0"/><path d="M146.3 202.4c0 19.14-31 34.65-69.29 34.65S7.7 221.54 7.7 202.4s31-34.65 69.31-34.65 69.29 15.51 69.29 34.65z" fill="#1f455c"/><path d="M62.7 272.73v25.19a100.07 100.07 0 0 1-29.7-7.64v-23.79a125.86 125.86 0 0 0 29.7 6.24z" fill="#9ad0f6"/><path class="f" d="M143 196.9v9.9a17.27 17.27 0 0 1-.7 4.84c-9.55 13.42-35.1 23.09-65.15 23.21s-55.45-9.25-65.22-22.5a17.24 17.24 0 0 1-.93-5.55v-9.9c0-5.13 2.34-10 6.51-14.3 10.73-11.09 33.33-18.7 59.49-18.7 24.63 0 46.11 6.75 57.44 16.75h.05c5.42 4.83 8.51 10.35 8.51 16.25z"/><path class="g" d="M143 196.9c0 18.23-29.56 33-66 33s-66-14.77-66-33 29.56-33 66-33 66 14.77 66 33z"/><ellipse cx="75.9" cy="196.9" rx="57.2" ry="24.2" fill="#8324f9"/><path d="M133.64 43v154c0 11.42-24.47 24.2-57.2 24.2a118.32 118.32 0 0 1-19.8-1.63c-11.41-1.94-20.92-5.45-27.5-9.62-6.29-4-9.9-8.57-9.9-12.95V43c0-11.42 24.46-24.2 57.2-24.2s57.2 12.78 57.2 24.2z" fill="#e3cefe" opacity=".37"/><path class="g" d="M46.2 148.4l30.74 41.94 30.28-41.31-30.28 17.75L46.2 148.4z"/><path class="k" d="M76.94 166.78L46.2 148.4l30.74 41.94v-23.56z"/><path class="g" d="M46.9 144.46l19.07 11.4 10.97 6.55 30.19-17.69-30.19-49.25-30.04 48.99z"/><path class="k" d="M76.94 95.47L46.9 144.46l30.04 17.95V95.47z"/><path class="l" d="M76.94 162.41l30.19-17.69-30.19-49.25"/><path class="g" d="M76.94 162.41l30.19-17.69-30.19-16.46"/><path class="l" d="M76.94 128.26l-30.04 16.2 30.04 17.95v-34.15z"/><path class="f" d="M143 47.3v6.6c0 18.23-29.56 33-66 33a126.45 126.45 0 0 1-20.37-1.61 90.58 90.58 0 0 1-27.5-8.68C17.9 70.7 11 62.7 11 53.9v-6.6a16.92 16.92 0 0 1 .23-2.75C14 27.61 42.4 14.3 77 14.3s63 13.31 65.76 30.25a16.92 16.92 0 0 1 .24 2.75z"/><path class="g" d="M143 39.6c0 18.23-29.56 33-66 33s-66-14.77-66-33 29.56-33 66-33 66 14.77 66 33z"/><path class="f" d="M126.16 30.66v5c0 13.73-22.26 24.86-49.71 24.86a95.41 95.41 0 0 1-15.35-1.23 68.14 68.14 0 0 1-20.72-6.54c-8.47-4.46-13.67-10.48-13.67-17.11v-5a12.06 12.06 0 0 1 .18-2.07C29 15.83 50.37 5.8 76.45 5.8s47.44 10 49.54 22.79a12 12 0 0 1 .17 2.07z"/><path class="g" d="M126.17 24.86c0 13.74-22.27 24.87-49.72 24.87S26.71 38.6 26.71 24.86 49 0 76.45 0s49.72 11.13 49.72 24.86z"/><path class="f" d="M45.64 18.26c0-8.5 13.79-15.4 30.79-15.4s30.81 6.9 30.81 15.4-13.79 15.4-30.81 15.4-30.79-6.89-30.79-15.4z"/><path class="g" d="M45.64 20.46c0-8.5 13.79-15.4 30.79-15.4s30.81 6.9 30.81 15.4-13.79 15.4-30.81 15.4S45.64 29 45.64 20.46z"/></svg>