<svg xmlns="http://www.w3.org/2000/svg" viewBox="0 0 239.13 210"><defs><style>.a{fill:#9359ef}.c{fill:#6110c7}.e{fill:#a26ff2}.f{fill:#be8cfc}</style></defs><path class="a" d="M0 105c0 3.83.19 7.59.55 11.31 4.6 47.25 37.75 84 77.83 84h13.07C61.3 183.64 40.38 147.23 40.38 105S61.3 26.36 91.45 9.69H78.38c-17.77 0-34.17 7.22-47.33 19.39C19.11 40.11 9.82 55.21 4.64 72.69A113.1 113.1 0 0 0 0 105z"/><path d="M35.54 105c0 42.23 20.92 78.64 51.06 95.31H108c-1.05-.83-2.07-1.67-3.09-2.54-22-18.77-37.07-48-39.85-81.46-.32-3.72-.48-7.5-.48-11.31a132.93 132.93 0 0 1 3.94-32.31 121.63 121.63 0 0 1 20.63-43.61A106.47 106.47 0 0 1 105 12.23c1-.87 2-1.71 3.09-2.54H86.6C56.46 26.36 35.54 62.77 35.54 105z" opacity=".23" fill="#6110c7"/><path class="a" d="M40.38 105c0 42.23 20.92 78.64 51.07 95.31a76.12 76.12 0 0 0 37 9.69h22.61a76.65 76.65 0 0 1-41.27-12.23C82 180.13 63 145.21 63 105s19-75.15 46.8-92.77A76.65 76.65 0 0 1 151.07 0h-22.61a76.12 76.12 0 0 0-37 9.69C61.3 26.36 40.38 62.77 40.38 105z"/><path class="c" d="M63 105c0 58 39.43 105 88.07 105s88.06-47 88.06-105S199.69 0 151.07 0 63 47 63 105zm89.07 30.43l32.52-23.1L152.07 166zm0-48.13l31.5 20.11-31.5 22.37zm0-43.28l31.45 60.59-31.45-20.06zm-2 40.53l-4.3 2.75-27.17 17.31 9-17.31 1.4-2.75L150 44zm0 45.23l-31.49-22.37L150 87.3zm-21.94 0l-10.56-17.45 24.55 17.45 7.95 5.65V166l-18.52-30.55z"/><path d="M63 105c0 58 39.43 105 88.07 105s88.06-47 88.06-105S199.69 0 151.07 0 63 47 63 105zm89.07 30.43l32.52-23.1L152.07 166zm0-48.13l31.5 20.11-31.5 22.37zm0-43.28l31.45 60.59-31.45-20.06zm-2 40.53l-4.3 2.75-27.17 17.31 9-17.31 1.4-2.75L150 44zm0 45.23l-31.49-22.37L150 87.3zm-21.94 0l-10.56-17.45 24.55 17.45 7.95 5.65V166l-18.52-30.55z" fill="#f1e5ff" opacity=".13"/><path class="c" d="M63 105c0 58 39.43 105 88.07 105s88.06-47 88.06-105S199.69 0 151.07 0 63 47 63 105zm85.65 92c-40.32-1.57-72.73-42.24-72.73-92s32.41-90.46 72.73-92c.81 0 1.61-.05 2.42-.05 41.42 0 75.13 41.31 75.13 92.08s-33.71 92.08-75.13 92.08c-.81-.03-1.61-.05-2.42-.11z"/><path class="a" d="M148.65 197c.81 0 1.61.05 2.42.05 41.42 0 75.13-41.31 75.13-92.08s-33.71-92.08-75.13-92.08c-.81 0-1.61 0-2.42.05 40.3 1.57 72.71 42.24 72.71 92S189 195.46 148.65 197z"/><path class="e" d="M118.55 107.41l31.49 22.37V87.3l-31.49 20.11zM129 84.55h21.04V44.02L129 84.55z"/><path class="f" d="M118.6 104.61l27.14-17.31 4.3-2.75H129l-1.42 2.75-8.98 17.31zM117.53 112.33l10.57 17.45 3.43 5.65h18.51l-32.51-23.1z"/><path class="a" d="M131.53 135.43l18.51 30.55v-30.55h-18.51zM152.07 44.02v40.53l31.45 20.06-31.45-60.59zM183.57 107.41l-31.5 22.37V87.3l31.5 20.11zM152.07 135.43v30.55l32.52-53.65-32.52 23.1z"/></svg>